<?xml version='1.0' encoding='UTF-8' standalone='no'?>
<!-- Created with makeLGA.py, https://github.com/moritzvb/makelga  -->
<svg xmlns="http://www.w3.org/2000/svg" width="9mm" x="0mm" version="1.2"  y="0mm" height="15mm" viewBox="0 0 9 15" baseProfile="tiny"> 
<desc >Fritzing footprint generated by makeLGA.py</desc> 
  <g  id="silkscreen" stroke-width="0"> 
<title >element:E$1</title> 
 <title >package:LGA77</title>
 <line  stroke="white" stroke-linecap="round" x1="0" y1="0" x2="0" y2="15"  stroke-width="0.576" x2="0"/>
 <line  stroke="white" stroke-linecap="round" x1="0" y1="15" x2="9" y2="15"  stroke-width="0.576" x2="0"/>
 <line  stroke="white" stroke-linecap="round" x1="9" y1="15" x2="9" y2="0"  stroke-width="0.576" x2="0"/>
 <line  stroke="white" stroke-linecap="round" x1="9" y1="0" x2="0" y2="0"  stroke-width="0.576" x2="0"/>
 <line  stroke="white" stroke-linecap="round" x1="str(square_size)" y1="0" x2="str(square_size)" y2="str(square_size)"  stroke-width="0.576" x2="0"/>
 <line  stroke="white" stroke-linecap="round" x1="str(square_size)" y1="str(square_size)" x2="0" y2="str(square_size)"  stroke-width="0.576" x2="0"/>
  </g><g  id="copper1" stroke-width="0">
<rect width="0.762" x="0.3725" y="0.8325" fill="#F7BD13" height="0.762" stroke="none" id="A1pad" stroke-width="0"/> 
<rect width="0.635" x="0.3725" y="2.1025" fill="#F7BD13" height="0.635" stroke="none" id="B1pad" stroke-width="0"/> 
<rect width="0.635" x="0.3725" y="3.3725" fill="#F7BD13" height="0.635" stroke="none" id="C1pad" stroke-width="0"/> 
<rect width="0.635" x="0.3725" y="4.6425" fill="#F7BD13" height="0.635" stroke="none" id="D1pad" stroke-width="0"/> 
<rect width="0.635" x="0.3725" y="5.9125" fill="#F7BD13" height="0.635" stroke="none" id="E1pad" stroke-width="0"/> 
<rect width="0.635" x="0.3725" y="7.1825" fill="#F7BD13" height="0.635" stroke="none" id="F1pad" stroke-width="0"/> 
<rect width="0.635" x="0.3725" y="8.4525" fill="#F7BD13" height="0.635" stroke="none" id="G1pad" stroke-width="0"/> 
<rect width="0.635" x="0.3725" y="9.7225" fill="#F7BD13" height="0.635" stroke="none" id="H1pad" stroke-width="0"/> 
<rect width="0.635" x="0.3725" y="10.9925" fill="#F7BD13" height="0.635" stroke="none" id="J1pad" stroke-width="0"/> 
<rect width="0.635" x="0.3725" y="12.2625" fill="#F7BD13" height="0.635" stroke="none" id="K1pad" stroke-width="0"/> 
<rect width="0.635" x="0.3725" y="13.5325" fill="#F7BD13" height="0.635" stroke="none" id="L1pad" stroke-width="0"/> 
<rect width="0.635" x="1.6425" y="0.8325" fill="#F7BD13" height="0.635" stroke="none" id="A2pad" stroke-width="0"/> 
<rect width="0.635" x="1.6425" y="2.1025" fill="#F7BD13" height="0.635" stroke="none" id="B2pad" stroke-width="0"/> 
<rect width="0.635" x="1.6425" y="3.3725" fill="#F7BD13" height="0.635" stroke="none" id="C2pad" stroke-width="0"/> 
<rect width="0.635" x="1.6425" y="4.6425" fill="#F7BD13" height="0.635" stroke="none" id="D2pad" stroke-width="0"/> 
<rect width="0.635" x="1.6425" y="5.9125" fill="#F7BD13" height="0.635" stroke="none" id="E2pad" stroke-width="0"/> 
<rect width="0.635" x="1.6425" y="7.1825" fill="#F7BD13" height="0.635" stroke="none" id="F2pad" stroke-width="0"/> 
<rect width="0.635" x="1.6425" y="8.4525" fill="#F7BD13" height="0.635" stroke="none" id="G2pad" stroke-width="0"/> 
<rect width="0.635" x="1.6425" y="9.7225" fill="#F7BD13" height="0.635" stroke="none" id="H2pad" stroke-width="0"/> 
<rect width="0.635" x="1.6425" y="10.9925" fill="#F7BD13" height="0.635" stroke="none" id="J2pad" stroke-width="0"/> 
<rect width="0.635" x="1.6425" y="12.2625" fill="#F7BD13" height="0.635" stroke="none" id="K2pad" stroke-width="0"/> 
<rect width="0.635" x="1.6425" y="13.5325" fill="#F7BD13" height="0.635" stroke="none" id="L2pad" stroke-width="0"/> 
<rect width="0.635" x="2.9125" y="0.8325" fill="#F7BD13" height="0.635" stroke="none" id="A3pad" stroke-width="0"/> 
<rect width="0.635" x="2.9125" y="2.1025" fill="#F7BD13" height="0.635" stroke="none" id="B3pad" stroke-width="0"/> 
<rect width="0.635" x="2.9125" y="3.3725" fill="#F7BD13" height="0.635" stroke="none" id="C3pad" stroke-width="0"/> 
<rect width="0.635" x="2.9125" y="4.6425" fill="#F7BD13" height="0.635" stroke="none" id="D3pad" stroke-width="0"/> 
<rect width="0.635" x="2.9125" y="5.9125" fill="#F7BD13" height="0.635" stroke="none" id="E3pad" stroke-width="0"/> 
<rect width="0.635" x="2.9125" y="7.1825" fill="#F7BD13" height="0.635" stroke="none" id="F3pad" stroke-width="0"/> 
<rect width="0.635" x="2.9125" y="8.4525" fill="#F7BD13" height="0.635" stroke="none" id="G3pad" stroke-width="0"/> 
<rect width="0.635" x="2.9125" y="9.7225" fill="#F7BD13" height="0.635" stroke="none" id="H3pad" stroke-width="0"/> 
<rect width="0.635" x="2.9125" y="10.9925" fill="#F7BD13" height="0.635" stroke="none" id="J3pad" stroke-width="0"/> 
<rect width="0.635" x="2.9125" y="12.2625" fill="#F7BD13" height="0.635" stroke="none" id="K3pad" stroke-width="0"/> 
<rect width="0.635" x="2.9125" y="13.5325" fill="#F7BD13" height="0.635" stroke="none" id="L3pad" stroke-width="0"/> 
<rect width="0.635" x="4.1825" y="0.8325" fill="#F7BD13" height="0.635" stroke="none" id="A4pad" stroke-width="0"/> 
<rect width="0.635" x="4.1825" y="2.1025" fill="#F7BD13" height="0.635" stroke="none" id="B4pad" stroke-width="0"/> 
<rect width="0.635" x="4.1825" y="3.3725" fill="#F7BD13" height="0.635" stroke="none" id="C4pad" stroke-width="0"/> 
<rect width="0.635" x="4.1825" y="4.6425" fill="#F7BD13" height="0.635" stroke="none" id="D4pad" stroke-width="0"/> 
<rect width="0.635" x="4.1825" y="5.9125" fill="#F7BD13" height="0.635" stroke="none" id="E4pad" stroke-width="0"/> 
<rect width="0.635" x="4.1825" y="7.1825" fill="#F7BD13" height="0.635" stroke="none" id="F4pad" stroke-width="0"/> 
<rect width="0.635" x="4.1825" y="8.4525" fill="#F7BD13" height="0.635" stroke="none" id="G4pad" stroke-width="0"/> 
<rect width="0.635" x="4.1825" y="9.7225" fill="#F7BD13" height="0.635" stroke="none" id="H4pad" stroke-width="0"/> 
<rect width="0.635" x="4.1825" y="10.9925" fill="#F7BD13" height="0.635" stroke="none" id="J4pad" stroke-width="0"/> 
<rect width="0.635" x="4.1825" y="12.2625" fill="#F7BD13" height="0.635" stroke="none" id="K4pad" stroke-width="0"/> 
<rect width="0.635" x="4.1825" y="13.5325" fill="#F7BD13" height="0.635" stroke="none" id="L4pad" stroke-width="0"/> 
<rect width="0.635" x="5.4525" y="0.8325" fill="#F7BD13" height="0.635" stroke="none" id="A5pad" stroke-width="0"/> 
<rect width="0.635" x="5.4525" y="2.1025" fill="#F7BD13" height="0.635" stroke="none" id="B5pad" stroke-width="0"/> 
<rect width="0.635" x="5.4525" y="3.3725" fill="#F7BD13" height="0.635" stroke="none" id="C5pad" stroke-width="0"/> 
<rect width="0.635" x="5.4525" y="4.6425" fill="#F7BD13" height="0.635" stroke="none" id="D5pad" stroke-width="0"/> 
<rect width="0.635" x="5.4525" y="5.9125" fill="#F7BD13" height="0.635" stroke="none" id="E5pad" stroke-width="0"/> 
<rect width="0.635" x="5.4525" y="7.1825" fill="#F7BD13" height="0.635" stroke="none" id="F5pad" stroke-width="0"/> 
<rect width="0.635" x="5.4525" y="8.4525" fill="#F7BD13" height="0.635" stroke="none" id="G5pad" stroke-width="0"/> 
<rect width="0.635" x="5.4525" y="9.7225" fill="#F7BD13" height="0.635" stroke="none" id="H5pad" stroke-width="0"/> 
<rect width="0.635" x="5.4525" y="10.9925" fill="#F7BD13" height="0.635" stroke="none" id="J5pad" stroke-width="0"/> 
<rect width="0.635" x="5.4525" y="12.2625" fill="#F7BD13" height="0.635" stroke="none" id="K5pad" stroke-width="0"/> 
<rect width="0.635" x="5.4525" y="13.5325" fill="#F7BD13" height="0.635" stroke="none" id="L5pad" stroke-width="0"/> 
<rect width="0.635" x="6.7225" y="0.8325" fill="#F7BD13" height="0.635" stroke="none" id="A6pad" stroke-width="0"/> 
<rect width="0.635" x="6.7225" y="2.1025" fill="#F7BD13" height="0.635" stroke="none" id="B6pad" stroke-width="0"/> 
<rect width="0.635" x="6.7225" y="3.3725" fill="#F7BD13" height="0.635" stroke="none" id="C6pad" stroke-width="0"/> 
<rect width="0.635" x="6.7225" y="4.6425" fill="#F7BD13" height="0.635" stroke="none" id="D6pad" stroke-width="0"/> 
<rect width="0.635" x="6.7225" y="5.9125" fill="#F7BD13" height="0.635" stroke="none" id="E6pad" stroke-width="0"/> 
<rect width="0.635" x="6.7225" y="7.1825" fill="#F7BD13" height="0.635" stroke="none" id="F6pad" stroke-width="0"/> 
<rect width="0.635" x="6.7225" y="8.4525" fill="#F7BD13" height="0.635" stroke="none" id="G6pad" stroke-width="0"/> 
<rect width="0.635" x="6.7225" y="9.7225" fill="#F7BD13" height="0.635" stroke="none" id="H6pad" stroke-width="0"/> 
<rect width="0.635" x="6.7225" y="10.9925" fill="#F7BD13" height="0.635" stroke="none" id="J6pad" stroke-width="0"/> 
<rect width="0.635" x="6.7225" y="12.2625" fill="#F7BD13" height="0.635" stroke="none" id="K6pad" stroke-width="0"/> 
<rect width="0.635" x="6.7225" y="13.5325" fill="#F7BD13" height="0.635" stroke="none" id="L6pad" stroke-width="0"/> 
<rect width="0.635" x="7.9925" y="0.8325" fill="#F7BD13" height="0.635" stroke="none" id="A7pad" stroke-width="0"/> 
<rect width="0.635" x="7.9925" y="2.1025" fill="#F7BD13" height="0.635" stroke="none" id="B7pad" stroke-width="0"/> 
<rect width="0.635" x="7.9925" y="3.3725" fill="#F7BD13" height="0.635" stroke="none" id="C7pad" stroke-width="0"/> 
<rect width="0.635" x="7.9925" y="4.6425" fill="#F7BD13" height="0.635" stroke="none" id="D7pad" stroke-width="0"/> 
<rect width="0.635" x="7.9925" y="5.9125" fill="#F7BD13" height="0.635" stroke="none" id="E7pad" stroke-width="0"/> 
<rect width="0.635" x="7.9925" y="7.1825" fill="#F7BD13" height="0.635" stroke="none" id="F7pad" stroke-width="0"/> 
<rect width="0.635" x="7.9925" y="8.4525" fill="#F7BD13" height="0.635" stroke="none" id="G7pad" stroke-width="0"/> 
<rect width="0.635" x="7.9925" y="9.7225" fill="#F7BD13" height="0.635" stroke="none" id="H7pad" stroke-width="0"/> 
<rect width="0.635" x="7.9925" y="10.9925" fill="#F7BD13" height="0.635" stroke="none" id="J7pad" stroke-width="0"/> 
<rect width="0.635" x="7.9925" y="12.2625" fill="#F7BD13" height="0.635" stroke="none" id="K7pad" stroke-width="0"/> 
<rect width="0.635" x="7.9925" y="13.5325" fill="#F7BD13" height="0.635" stroke="none" id="L7pad" stroke-width="0"/> 
</g>
</svg>
